<?xml version="1.0" standalone="no"?>
<!DOCTYPE svg PUBLIC "-//W3C//DTD SVG 20010904//EN"
 "http://www.w3.org/TR/2001/REC-SVG-20010904/DTD/svg10.dtd">
<svg version="1.0" xmlns="http://www.w3.org/2000/svg"
 width="25.686px" height="40px" viewBox="0 0 131.000000 204.000000"
 preserveAspectRatio="xMidYMid meet">
<metadata>
Created by potrace 1.15, written by Peter Selinger 2001-2017
</metadata>
<g transform="translate(0.000000,204.000000) scale(0.100000,-0.100000)" fill="#000000">
<path d="M472 2021 c-114 -33 -190 -79 -282 -171 -133 -133 -190 -268 -190
-453 0 -153 59 -325 225 -658 124 -246 383 -699 418 -727 21 -18 265 394 437
736 162 323 224 501 224 647 0 111 -15 177 -64 280 -84 175 -240 303 -425 350
-83 21 -262 19 -343 -4z m307 -136 c193 -51 341 -215 372 -414 26 -156 -29
-319 -145 -435 -266 -265 -716 -155 -837 204 -30 90 -30 220 0 310 42 123 139
238 251 296 104 53 249 69 359 39z"/>
<path d="M570 1790 c-230 -48 -370 -291 -300 -522 29 -100 134 -208 243 -251
74 -29 201 -28 280 2 288 112 348 499 106 691 -87 69 -223 102 -329 80z m210
-195 c53 -28 62 -126 13 -154 -12 -6 -9 -14 16 -39 55 -55 36 -148 -36 -178
-21 -9 -73 -14 -148 -14 l-115 0 0 200 0 200 120 0 c87 0 129 -4 150 -15z"/>
<path d="M600 1335 l0 -55 59 0 c66 0 91 15 91 55 0 35 -36 55 -97 55 l-53 0
0 -55z"/>
</g>
</svg>
